# xmcd
#
# Track frame offsets: 
#        150
#        14410
#        25421
#        40160
#        57086
#        71330
#        82637
#        94212
#        109066
#        123492
#
# Disc length: 1894 seconds
#
# Revision: 0
# Processed by: cddbd v1.4PL0 Copyright (c) Steve Scherf et al.
# Submitted via: ExactAudioCopy v0.90b4
#
DISCID=7607640a
DTITLE=Gary Morris - Gary Morris
DYEAR=1900
DGENRE=Country
TTITLE0=Headed For A Heartache
TTITLE1=Something's Falling
TTITLE2=Dreams Die Hard
TTITLE3=When I Close My Eyes
TTITLE4=Don't Look Back
TTITLE5=I Can Tell By The Way Dance
TTITLE6=Dancin' The Night Away
TTITLE7=Sweet Red Wine
TTITLE8=No Place To Hide
TTITLE9=Day By Day
EXTD=
EXTT0=
EXTT1=
EXTT2=
EXTT3=
EXTT4=
EXTT5=
EXTT6=
EXTT7=
EXTT8=
EXTT9=
PLAYORDER=
